<svg xmlns="http://www.w3.org/2000/svg" width="450" height="308" viewBox="0 0 450 308">
    <g fill="none" fill-rule="evenodd" opacity=".7">
        <path d="M407.915 199.303c.313-.103.634-.19.952-.279-.318.09-.638.176-.952.279zm-1.456.778c.293-.128.594-.238.895-.354-.3.115-.601.226-.895.354zm4.403-1.561c.33-.074.664-.134.999-.194-.335.06-.67.12-1 .194zm-6.598 2.334c.27-.15.553-.28.83-.42-.277.14-.56.27-.83.42zm8.81-3.122c.34-.042.685-.072 1.03-.1-.345.028-.69.06-1.03.1zm-305.401-64.416c.477.126.967.282 1.473.46-.458-.421-.954-.763-1.474-1.013v.553zm294.403 69.043c.244-.165.5-.312.75-.469-.25.157-.506.304-.75.47zm-1.412.736c.195-.161.403-.304.604-.458-.2.154-.41.297-.604.458zm-1.926 1.991l-.031.03c-3.658 3.863-6.098 9.029-6.651 14.778.553-5.75 2.994-10.915 6.651-14.777l.032-.03-.001-.001zm-297.65-72.443l.175.004v-.236c-.184.065-.371.15-.558.233.147-.002.266-.002.383 0v-.001z"/>
        <path fill="#ECF0F9" fill-rule="nonzero" d="M446.46 301.5h-70.489c1.358-.38 2.673-.861 3.91-1.488 1.924-.976 3.672-2.228 5.207-3.712 4.038-3.89 6.553-9.341 6.553-15.368v-59.205c0-.83.042-1.65.124-2.458.578-5.657 3.126-10.738 6.942-14.539l.033-.03c.52-.516 1.064-1.008 1.629-1.475.202-.167.418-.314.625-.474.386-.3.77-.6 1.173-.875.252-.172.52-.323.777-.485.379-.238.756-.48 1.15-.697.28-.154.573-.29.86-.434.39-.196.778-.392 1.178-.567.305-.132.616-.247.927-.367.402-.155.803-.308 1.213-.443.327-.105.657-.196.988-.288.41-.115.823-.226 1.242-.319.342-.077.69-.139 1.037-.2.424-.075.85-.142 1.28-.195.353-.043.711-.076 1.069-.103.403-.031.808-.05 1.216-.062.226-.006.445-.033.672-.033H348.66v83.248c0 5.905 2.403 11.257 6.297 15.124 3.884 3.878 9.258 6.272 15.188 6.272h-76.535c-2.278 1.529-5.023 2.422-7.976 2.422H24.49c-3.082 0-5.872-1.242-7.895-3.25H3.515C1.573 301.5 0 302.955 0 304.75 0 306.546 1.574 308 3.514 308H446.46c1.94 0 3.513-1.455 3.513-3.25s-1.572-3.25-3.513-3.25z"/>
        <path fill="#7592BF" fill-rule="nonzero" d="M336.978 133.334h.26l-.129-.13-.13.13zm-28.853-.23l-.283.282c.21.014.424.026.615.049l-.332-.33zm10.331.21h.178l-.09-.09-.088.09zm-159.555-23.737h43.067v19.25H158.9v-19.25z"/>
        <path fill="#CCD9EF" fill-rule="nonzero" d="M201.968 128.377L159.176 128.377 157.416 128.377 157.416 130.757 159.176 130.757 201.968 130.757z"/>
        <path fill="#F69679" fill-rule="nonzero" d="M117.842 157.702l-1.044.219c.043 1.324.091 2.734.144 4.224l.834-4.12.066-.323z"/>
        <path fill="#00919E" fill-rule="nonzero" d="M93.136 158.592l-.77-.15c-.845 2.455-1.745 4.892-2.714 7.303-1.502 3.742-2.638 7.548-3.519 11.207h31.93l-.015-.302h-23.73l-1.181-18.057-.001-.001z"/>
        <path fill="#FABCA3" fill-rule="nonzero" d="M96.64 132.665c.554-.171.982-.242 1.263-.273-.278.03-.71.105-1.264.273zm1.314-.131l.12-.01-.12.01zm-1.238.674c-.12.036-.243.076-.374.123l.042-.01c.113-.04.228-.08.332-.113zm-11.023 43.744c.901-3.69 2.065-7.528 3.603-11.3.992-2.432 1.913-4.889 2.778-7.364l-.054-.01c-.259.738-.494 1.482-.763 2.217-3.774 2.269-7.772 4.048-11.914 5.46.585-3.622 1.261-6.837 1.996-9.73l-.015-.004c-1.411 5.552-2.59 12.36-3.358 20.73h7.727z"/>
        <path fill="#F69679" fill-rule="nonzero" d="M98.25 132.344l.004-.02h-.041l-.055.002-.075.003-.12.01-.076.008c-.281.03-.71.102-1.264.274h-.002c-.105.032-.22.073-.332.113.702-.174 1.36-.305 1.962-.39zm-16.812 24.617c-.731 2.863-1.405 6.044-1.987 9.625 4.123-1.395 8.104-3.155 11.862-5.4.269-.726.503-1.464.76-2.194l-10.635-2.03v-.001z"/>
        <path fill="#0BC" fill-rule="nonzero" d="M107.319 133.42c.138.095.253.197.352.305l.016.012-.004.003c.263.286.41.61.514.952.714 2.364.279 5.396-2.057 9.009-.796 1.233-2.644 1.342-3.557.19-1.228-1.546-2-2.95-2.5-4.212l-.018.015c-.033-.08-.04-.145-.068-.224-.018-.047-.044-.098-.06-.144-.864.566-1.742 1.11-2.665 1.589 1.36 5.187 5.502 11.196 6.41 12.344 1.117-1.394 6.955-9.713 6.955-15.302 0-1.988-.768-3.304-1.776-4.214-.53-.182-1.042-.345-1.541-.474v.151h-.001zm-6.525-.891l-.003.001c.137-.002.274-.003.386-.001-.117-.002-.237-.001-.383 0zm-18.082 12.804c.278-.684.589-1.305.903-1.916-.314.61-.623 1.231-.903 1.916zm2.855-4.68c.368-.51.742-.997 1.133-1.44-.39.443-.765.93-1.133 1.44zm7.322-6.373c.452-.203.9-.383 1.34-.54-.44.156-.885.337-1.34.54zm-8.741 7.945c.32-.576.654-1.113 1.001-1.622-.348.51-.681 1.046-1.001 1.622zm8.669-8.216c-1.998.931-4.062 2.345-5.941 4.443 1.874-2.098 3.947-3.507 5.94-4.443zm6.825-1.492c-.087.005-.194.018-.287.024.099-.007.179-.01.273-.014l.014-.01zm-.144.252c-.39.028-.808.071-1.27.13-.662.086-1.387.217-2.16.39l-.046.011c-.555.126-1.127.284-1.72.47 2.006-.632 3.829-.898 5.197-1.002v.001z"/>
        <path fill="#0BC" fill-rule="nonzero" d="M91.748 158.862l.053.01.778.15 1.192 17.93h23.953l-.111-2.355h-.546c-.555 0-1.02-.234-1.408-.553l-.014.058c-.102-.083-.184-.187-.27-.286-.032-.035-.068-.063-.096-.1-.177-.225-.299-.481-.38-.759-.017-.06-.026-.118-.038-.18-.06-.293-.082-.6-.012-.916l2.209-9.998c-.057-1.42-.106-2.765-.151-4.028l1.086-.208 2.21-9.995c.082-.38.282-.696.525-.974.048-.056.088-.108.142-.158.056-.054.102-.115.162-.161-2.664-7.27-7.292-10.74-11.383-12.33.833.943 1.446 2.208 1.446 4.024 0 5.884-6.223 14.683-7.07 15.69v.584h3.798v4.65h-7.828v-4.65h3.723v-.583c-.478-.565-2.19-3.008-3.759-5.918-1.01-1.87-2.115-4.29-2.734-6.632-4.167 2.126-8.899 3.396-13.962 4.11-.211.03-.419.033-.629.06-1.235 3.011-2.132 6.698-2.44 11.299l1.009.194.015.003 10.53 2.022z"/>
        <path fill="#00919E" fill-rule="nonzero" d="M97.647 140.97c-.284-1.076-.497-2.14-.497-3.122 0-2.864 1.477-4.434 3.091-5.32-.097.007-.18.008-.28.015-.074.005-.154.014-.23.02-1.284.107-2.994.38-4.877 1.031l-.195.067c-.454.163-.916.348-1.384.558-.063.028-.124.057-.185.086-1.99.918-4.058 2.3-5.929 4.36-.066.073-.132.139-.198.212-.403.457-.79.96-1.17 1.484-.116.16-.23.324-.344.492-.358.525-.704 1.078-1.034 1.67-.11.197-.21.411-.316.616-.325.628-.645 1.268-.933 1.972l-.002.005h.001c.208-.028.414-.031.623-.06 5.026-.71 9.724-1.973 13.86-4.086z"/>
        <path fill="#00919E" fill-rule="nonzero" d="M100.204 137.816c-.011-.046-.03-.096-.04-.14-.109-.496-.151-.943-.159-1.361-.003-.122.005-.227.01-.341.011-.296.04-.567.09-.814.02-.096.034-.19.059-.278.08-.301.18-.574.301-.786.28-.491.64-.887 1.262-1.157v-.406l-.197-.003c-.124-.002-.278 0-.43.001-1.901.754-3.828 2.233-3.828 5.243 0 .902.212 1.89.5 2.9.986-.47 1.922-1.003 2.843-1.558-.18-.457-.316-.89-.411-1.3z"/>
        <path fill="#212237" fill-rule="nonzero" d="M97.272 137.762c0 .991.21 2.065.491 3.154.609 2.352 1.693 4.78 2.685 6.657 1.54 2.923 3.221 5.375 3.69 5.943v1.225h.301v-1.225c.832-1.012 6.94-9.847 6.94-15.754 0-1.824-.601-3.094-1.419-4.039-.622-.719-1.356-1.238-2.12-1.595v.324c.53.261 1.036.616 1.504 1.054.983.92 1.733 2.249 1.733 4.256 0 5.646-5.698 14.05-6.789 15.458-.886-1.16-4.928-7.23-6.257-12.47-.263-1.04-.458-2.058-.458-2.988 0-3.102 1.763-4.627 3.502-5.403h.004c.19-.086.382-.176.57-.244v-.327c-.431.149-.869.347-1.306.59l-.014.01c-1.597.894-3.057 2.48-3.057 5.374z"/>
        <path fill="#ECF0F9" fill-rule="nonzero" d="M104.126 154.608V154h-3.885v4.442h8.168V154h-3.963v.608h-.32zm-3.264 1.273h3.843v.276h-3.843v-.276zm0 .706h3.843v.275h-3.843v-.275zm0 .98v-.275h3.843v.275h-3.843zm4.786-2.391h1.854v1.686h-1.854v-1.687.001zm0 2.116h1.854v.275h-1.854v-.275zm-.943-1.84h-3.843v-.276h3.843v.275z"/>
        <path fill="#DE1B50" fill-rule="nonzero" d="M105.439 155.481L106.924 155.481 106.924 156.961 105.439 156.961z"/>
        <path fill="#1F2B7B" fill-rule="nonzero" d="M100.984 155.327h3.712v.7h-3.712v-.7zm0 .74h3.712v.7h-3.712v-.7zm0 .74h3.712v.7h-3.712v-.7zm0 .741h3.712v.7h-3.712v-.7zm4.455 0h1.485v.7h-1.485v-.7z"/>
        <path fill="#7592BF" fill-rule="nonzero" d="M134.23 174.5c.757-.01 1.437-.404 1.82-1.019-.383.614-1.063 1.008-1.82 1.019zm-13.84-26.945c.079-.372.272-.686.504-.959-.234.273-.425.586-.505.96l-2.123 9.843-.066.303 2.19-10.147zm-5.252 25.743c-.029-.033-.066-.061-.092-.096.028.035.061.063.092.096zm-.028-.702c-.016-.056-.024-.115-.036-.173.012.06.02.116.036.173z"/>
        <path fill="#7592BF" fill-rule="nonzero" d="M115.835 174.175c.386.32.85.555 1.402.555h16.992l.012-.002c-.9-2.88-1.164-5.857-1.155-9.047-.434-.494-.469-.87.003-1.013 0-.078.006-.161.01-.24-.796-.515-.773-1.35.045-1.19l.004-.102c-.124-.215-.653-.738-.474-1.134.117-.262.346-.296.528-.282l.006-.152c-.326-.283-.828-.84-.547-1.466.401-.89 4.937 2.229 4.937 2.229s-1.87-1.915-.58-2.405c.407-.154 1.162.419 1.996 1.255l2.756-12.575c.309-1.413-.765-2.75-2.208-2.75h-16.994c-.201 0-.392.05-.58.1l-6.153 28.219zm10.715-22.054h9.266l-.282 1.34h-9.28l.296-1.34zm-.513 2.221h9.267l-.28 1.34h-9.28l.293-1.34zM120.595 146.111c.246-.234.543-.412.875-.51-.261.077-.506.19-.718.354-.059.045-.101.105-.157.155v.001z"/>
        <path fill="#053A72" fill-rule="nonzero" d="M120.852 146.419c-.05.051-.09.104-.135.159-.23.276-.42.595-.498.973l-2.163 10.29-.824 3.925-2.1 9.985c-.065.317-.045.623.012.917.012.06.02.12.036.179.077.277.193.533.361.758.026.036.062.065.09.1.084.098.162.203.258.286l.013-.059 5.866-28.05.006-.026c-.023.007-.037.029-.058.036-.329.101-.621.286-.865.527h.001zm13.143 20.312c-.485-.312-.824-.608-1.081-.885-.01 3.133.265 6.055 1.208 8.885.007 0 .011-.003.017-.003.822-.01 1.56-.414 1.977-1.041.14-.212.246-.447.306-.702l.946-4.052c-1.358-.891-2.734-1.791-3.373-2.202zm-1.198-5.424l-.006.147c.133.01.243.046.243.046s-.105-.08-.237-.193zm.094 1.53l-.004.096c.022.004.029-.01.05-.004.007-.015-.027-.06-.046-.093zm-.074 1.414c-.004.075-.01.154-.01.23.078-.024.102-.073.211-.082-.09-.04-.128-.1-.201-.148z"/>
        <path fill="#FABCA3" fill-rule="nonzero" d="M137.433 162.332s-4.697-3.093-5.113-2.21c-.29.622.23 1.173.567 1.453.142.118.255.2.255.2s-.118-.037-.26-.048c-.19-.014-.426.02-.548.279-.185.393.363.911.491 1.125.02.034.058.08.05.096-.024-.006-.032.008-.055.004-.846-.158-.87.67-.046 1.181.08.05.12.112.216.154-.117.009-.143.06-.226.084-.489.141-.453.514-.003 1.004.255.28.59.58 1.07.894.631.415 1.992 1.324 3.335 2.224.11.073.218.145.325.218 1.659 1.11 3.957.501 4.788-1.267.49-1.04.344-2.25-.379-3.155-.832-1.039-1.975-2.394-3-3.376-.865-.829-1.646-1.397-2.068-1.244-1.336.485.6 2.384.6 2.384z"/>
        <path fill="#ECF0F9" fill-rule="nonzero" d="M107.835 133.417c-.095-.104-.204-.203-.337-.295v.009c.129.09.244.185.337.286zm-.58.142v2.039c0 1.743-1.377 3.155-3.074 3.155-.842 0-1.605-.35-2.16-.916l-1.78 1.455c.485 1.278 1.233 2.702 2.424 4.27.884 1.167 2.675 1.057 3.447-.194 2.264-3.663 2.686-6.736 1.994-9.133-.1-.347-.243-.676-.498-.966l-.353.29zm-7.149 1.58c.073-.297.162-.569.27-.778-.108.21-.197.48-.27.778zm-.536 2.506c-.097-.49-.135-.934-.142-1.348.007.414.045.858.142 1.348z"/>
        <path fill="#ECF0F9" fill-rule="nonzero" d="M100.102 137.738c.097.406.234.835.416 1.288.018.044.046.094.065.14-.209-.502-.375-.982-.48-1.428zm-.644-1.845c.012-.29.042-.561.092-.806-.05.245-.08.514-.092.806z"/>
        <path fill="#CCD9EF" fill-rule="nonzero" d="M107.491 132.98v.578l.348-.277.003-.002c-.003-.005-.01-.008-.014-.013-.093-.1-.21-.195-.337-.286zm-7.315 1.469c-.109.215-.197.494-.27.8-.021.09-.035.186-.052.284-.045.25-.07.53-.081.83-.005.115-.012.223-.01.346.008.426.046.884.143 1.388.009.044.026.096.036.142.095.459.24.953.427 1.47.027.078.033.144.065.224l.017-.015 1.754-1.433c-.082-.082-.124-.196-.196-.288l-.033.032c-.117-.148-.185-.329-.273-.497-.056-.11-.13-.203-.174-.319-.136-.353-.224-.731-.224-1.133v-3.01c-.556.275-.878.678-1.13 1.178v.001z"/>
        <path fill="#FABCA3" fill-rule="nonzero" d="M102.659 138.334c.532.53 1.26.858 2.067.858 1.624 0 2.941-1.325 2.941-2.96v-2.963l-5.198 4.79c.07.087.111.196.19.274v.001zm-1.02-1.518c.046.113.118.204.175.31-.056-.105-.13-.198-.174-.31z"/>
        <path fill="#F69679" fill-rule="nonzero" d="M101.727 132.307v3.443c0 .406.085.786.219 1.141.043.116.115.212.17.32.087.17.153.352.267.5l.033-.03 5.251-5.06v-1.001c-.684.5-1.504.78-2.452.78-1.26 0-2.496-.482-3.489-1.352v1.26-.001z"/>
        <path fill="#FABCA3" fill-rule="nonzero" d="M105.192 132.529c.979 0 1.824-.286 2.53-.797 1.365-.989 2.172-2.877 2.172-5.556 0-.446-.001-.896-.008-1.34-.376-.393-.693-.94-.843-1.69-.513-2.565-5.613-.64-8.072-3.204 0 2.583-1.155 5.359-2.571 4.746-.225.224-.386.576-.386 1.159 0 1.624 1.192 2.105 1.742 2.242.334 1.293.988 2.32 1.838 3.059 1.024.889 2.3 1.38 3.599 1.38h-.001z"/>
        <path fill="#1F2B7B" fill-rule="nonzero" d="M100.296 120.37c2.527 2.538 7.766.632 8.293 3.17.155.743.48 1.286.866 1.674.933.938 2.245.866 2.564-.233.454-1.554-.66-1.093-2.072-5.607-.292-.928-1.018-1.712-1.917-2.36-1.338-.966-2.838-1.347-4.308-1.339.003-.027.02-.048.022-.074.07-.711-.068-1.55-.893-2.064-1.65-1.027-6.682 1.133-5.777 4.319.13.462.35.776.6 1.03-.647.991-1.08 2.158-1.138 3.492-.046 1.033.13 1.882.554 2.31.191.191.378.303.564.38 1.455.607 2.642-2.142 2.642-4.698z"/>
        <path fill="#F9F9F9" fill-rule="nonzero" d="M135.883 151.876h-9.356l-.297 1.286h9.367l.286-1.286zm-.743 2.221h-9.356l-.296 1.286h9.369l.283-1.286z"/>
        <path fill="#ECF0F9" fill-rule="nonzero" d="M125.488 225.077c6.14 0 11.137-4.984 11.137-11.107 0-6.124-4.996-11.104-11.137-11.104-6.142 0-11.138 4.98-11.138 11.104 0 6.123 4.996 11.107 11.138 11.107zm-7.979-12.636c0-.764.622-1.384 1.389-1.384h3.668v-3.66c0-.764.622-1.383 1.388-1.383h3.069c.766 0 1.388.619 1.388 1.383v3.66h3.67c.766 0 1.388.62 1.388 1.384v3.06c0 .764-.622 1.383-1.389 1.383h-3.67v3.66c0 .764-.621 1.384-1.387 1.384h-3.07c-.765 0-1.387-.62-1.387-1.384v-3.66h-3.668c-.767 0-1.389-.619-1.389-1.383v-3.06z"/>
        <path fill="#ECF0F9" fill-rule="nonzero" d="M136.23 234.283l65.887-18.096v5.413h76.258l2.244-23.653-.572-3.626-2.078-13.162-7.164-2.34c-.097-.032-.18-.086-.276-.12-.54-.195-1.07-.408-1.559-.68-.245-.136-.453-.315-.684-.469-.313-.207-.64-.396-.925-.633-.13-.107-.23-.24-.352-.352-2.712-2.487-4.038-6.293-3.115-10.06l.017-.061c0-.002 0-.004.002-.007.112-.464.236-.89.353-1.342.507-1.95 1.032-3.811 1.58-5.523.282-.875.596-1.735.936-2.58.09-.223.193-.437.286-.657.261-.623.531-1.24.826-1.846.114-.236.242-.465.36-.699.298-.581.602-1.159.927-1.722.125-.214.257-.423.384-.635.349-.577.707-1.146 1.082-1.702.12-.177.244-.35.365-.524.412-.585.836-1.16 1.277-1.72l.317-.395c.484-.597.983-1.178 1.5-1.744.079-.086.157-.173.238-.258.566-.609 1.152-1.197 1.757-1.767l.123-.12c3.87-3.611 8.474-6.415 13.58-8.13V29.37c0-16.223 13.2-29.371 29.484-29.371h-87.676c-8.155 0-15.53 3.29-20.86 8.602-5.332 5.312-8.635 12.658-8.635 20.768v77.404h-44.882v2.467h44.882V162.3c-.214.49-.339 1.028-.339 1.596 0 .57.125 1.106.339 1.597v24.337H49.007v22.69h64.563c.746-6.236 6.026-11.106 12.485-11.106 6.455 0 11.736 4.87 12.483 11.106h63.579v2.466h-63.53c-.516 6.473-5.909 11.597-12.532 11.597-6.625 0-12.019-5.124-12.535-11.597H49.007v64.14l87.224-24.658v-20.184zM258.345 50.971c.109.108.109.284 0 .392-.055.055-.125.081-.197.081-.072 0-.142-.026-.198-.08l-.543-.542-.542.541c-.054.055-.125.081-.197.081-.072 0-.143-.026-.198-.08-.108-.11-.108-.285 0-.393l.543-.54-.543-.542c-.108-.108-.108-.284 0-.392.11-.11.286-.11.395 0l.542.54.543-.54c.11-.11.286-.108.395 0 .109.108.109.284 0 .391l-.544.542.544.541zm-30.627-11.376c-.45 0-.817-.364-.817-.814v-1.898c0-.45.365-.814.817-.814h35.795c.451 0 .818.364.818.814v1.897c0 .45-.367.814-.818.814h-35.795zM254.95 50.97c.11.108.11.284 0 .392-.054.055-.125.081-.197.081-.07 0-.144-.026-.197-.08l-.543-.541-.543.54c-.055.055-.125.081-.197.081-.07 0-.141-.026-.197-.08-.109-.11-.109-.285 0-.393l.543-.54-.543-.542c-.109-.108-.109-.284 0-.392.11-.11.285-.11.394 0l.543.54.542-.54c.11-.11.286-.11.395 0 .11.108.11.284 0 .391l-.543.542.543.541zm-3.393 0c.108.108.108.284 0 .392-.055.055-.126.081-.197.081-.07 0-.143-.026-.197-.08l-.543-.541-.544.54c-.054.055-.126.081-.196.081s-.143-.026-.197-.08c-.109-.11-.109-.285 0-.393l.543-.54-.543-.542c-.109-.108-.109-.284 0-.392.11-.11.285-.11.393 0l.544.54.542-.54c.109-.11.286-.11.395 0 .108.108.108.284 0 .391l-.543.542.543.541zm-3.394 0c.11.108.11.284 0 .392-.054.055-.126.081-.196.081s-.143-.026-.197-.08l-.543-.542-.543.541c-.055.055-.127.081-.197.081s-.143-.026-.197-.08c-.108-.11-.108-.285 0-.393l.542-.54-.542-.542c-.108-.108-.108-.284 0-.392.108-.11.285-.11.394 0l.543.54.543-.54c.11-.11.285-.108.393 0 .11.108.11.284 0 .391l-.542.542.542.541zm-3.392 0c.108.108.108.284 0 .392-.055.055-.127.081-.197.081-.071 0-.143-.026-.197-.08l-.543-.542-.543.541c-.054.055-.127.081-.197.081-.072 0-.143-.026-.197-.08-.11-.11-.11-.285 0-.393l.542-.54-.542-.542c-.11-.108-.11-.284 0-.392.108-.11.284-.11.394 0l.543.54.543-.54c.108-.11.285-.11.394 0 .108.108.108.284 0 .391l-.543.542.543.541zm-3.393 0c.108.108.108.284 0 .392-.057.055-.127.081-.197.081-.072 0-.143-.026-.197-.08l-.544-.542-.542.541c-.056.055-.127.081-.197.081-.072 0-.143-.026-.197-.08-.11-.11-.11-.285 0-.393l.543-.54-.543-.542c-.11-.108-.11-.284 0-.392.108-.11.284-.11.394 0l.542.54.544-.54c.108-.11.286-.108.394 0 .108.108.108.284 0 .391l-.543.542.543.541zm-3.393 0c.108.108.108.284 0 .392-.056.055-.127.081-.197.081-.072 0-.143-.026-.197-.08l-.543-.541-.543.54c-.056.055-.127.081-.197.081-.072 0-.143-.026-.197-.08-.11-.11-.11-.285 0-.393l.543-.54-.543-.542c-.11-.108-.11-.284 0-.392.108-.11.284-.11.394 0l.543.54.543-.54c.108-.11.284-.11.394 0 .108.108.108.284 0 .391l-.543.542.543.541zm-3.395 0c.11.108.11.284 0 .392-.054.055-.125.081-.195.081-.073 0-.143-.026-.198-.08l-.542-.542-.544.541c-.055.055-.125.081-.196.081-.073 0-.143-.026-.199-.08-.108-.11-.108-.285 0-.393l.545-.54-.545-.542c-.108-.108-.108-.284 0-.392.11-.11.286-.11.395 0l.544.54.542-.54c.11-.11.285-.11.393 0 .11.108.11.284 0 .391l-.543.542.543.541zm-3.392 0c.109.108.109.284 0 .392-.055.055-.125.081-.196.081-.073 0-.143-.026-.199-.08l-.543-.542-.542.541c-.055.055-.125.081-.198.081-.07 0-.143-.026-.196-.08-.109-.11-.109-.285 0-.393l.544-.54-.545-.542c-.108-.108-.108-.284 0-.392.11-.11.286-.11.395 0l.542.54.543-.54c.11-.11.286-.108.395 0 .109.108.109.284 0 .391l-.544.542.544.541zm-3.393 0c.11.108.11.284 0 .392-.055.055-.125.081-.198.081-.07 0-.143-.026-.196-.08l-.544-.542-.543.541c-.054.055-.126.081-.197.081-.07 0-.143-.026-.196-.08-.109-.11-.109-.285 0-.393l.543-.54-.544-.542c-.108-.108-.108-.284 0-.392.108-.11.286-.11.394 0l.543.54.543-.54c.11-.11.286-.11.395 0 .11.108.11.284 0 .391l-.544.542.544.541zm37.325 0c.108.108.108.284 0 .392-.056.055-.126.081-.199.081-.07 0-.14-.026-.195-.08l-.545-.541-.54.54c-.056.055-.127.081-.2.081-.07 0-.14-.026-.195-.08-.11-.11-.11-.285 0-.393l.542-.54-.542-.542c-.11-.108-.11-.284 0-.392.108-.11.285-.11.394 0l.541.54.545-.54c.108-.11.285-.11.394 0 .108.108.108.284 0 .391l-.544.542.544.541zm-5.268 0l.543-.54-.543-.542c-.109-.108-.109-.284 0-.392.11-.11.286-.11.393 0l.544.54.544-.54c.108-.11.285-.11.394 0 .108.108.108.284 0 .391l-.544.542.544.541c.108.108.108.284 0 .392-.056.055-.126.081-.196.081-.073 0-.144-.026-.198-.08l-.544-.542-.543.541c-.054.055-.125.081-.197.081-.071 0-.142-.026-.197-.08-.109-.11-.109-.285 0-.393zm6.787-1.082c-.11-.108-.11-.284 0-.392.108-.11.285-.11.394 0l.543.54.543-.54c.108-.11.284-.11.394 0 .109.108.109.284 0 .391l-.543.542.543.541c.109.108.109.284 0 .392-.054.055-.126.081-.197.081-.072 0-.143-.026-.197-.08l-.543-.542-.543.541c-.054.055-.126.081-.197.081-.07 0-.143-.026-.197-.08-.11-.11-.11-.285 0-.393l.543-.54-.543-.542zm12.592 31.96c.377 0 .682.304.682.679v1.586c0 .376-.305.68-.682.68h-8.486c-.377 0-.683-.304-.683-.68v-1.586c0-.375.306-.68.683-.68h8.486zm-6.379-7.352V72.91c0-.376.306-.68.683-.68h5.696c.377 0 .682.304.682.68v1.586c0 .375-.305.68-.682.68h-5.696c-.377 0-.683-.305-.683-.68zm-2.107 16.97h8.486c.377 0 .682.304.682.679v1.586c0 .376-.305.68-.682.68h-8.486c-.377 0-.683-.304-.683-.68v-1.586c0-.375.306-.68.683-.68zm9.169 10.296v1.587c0 .375-.306.68-.683.68h-5.696c-.377 0-.683-.305-.683-.68v-1.586c0-.376.306-.68.683-.68h5.696c.377 0 .682.304.682.68zm0-38.47v1.586c0 .375-.306.68-.683.68h-8.486c-.377 0-.683-.305-.683-.68v-1.586c0-.376.306-.68.683-.68h8.486c.377 0 .682.304.682.68zm-45.996-41.25c0-.45.365-.814.817-.814h21.74c.452 0 .817.364.817.814v1.897c0 .45-.365.814-.817.814h-21.74c-.45 0-.817-.364-.817-.813v-1.898zm-14.254 7.42c0-.45.367-.813.818-.813h50.247c.45 0 .816.364.816.813v1.898c0 .45-.365.814-.816.814h-50.247c-.451 0-.818-.364-.818-.814v-1.898zm4.737 21.508c.109.108.109.284 0 .392-.054.055-.126.081-.197.081-.07 0-.143-.026-.196-.08l-.544-.542-.543.541c-.054.055-.126.081-.196.081-.071 0-.144-.026-.197-.08-.109-.11-.109-.285 0-.393l.542-.54-.543-.542c-.108-.108-.108-.284 0-.392.108-.11.286-.11.394 0l.543.54.543-.54c.11-.11.286-.108.394 0 .109.108.109.284 0 .391l-.543.542.543.541zm-15.136 12.322c0-.376.305-.68.682-.68h26.662c.375 0 .682.304.682.68v1.586c0 .375-.307.68-.682.68h-26.662c-.377 0-.682-.305-.682-.68v-1.586zm0 9.618c0-.376.305-.68.682-.68h17.466c.377 0 .683.304.683.68v1.586c0 .375-.306.68-.683.68h-17.466c-.377 0-.682-.305-.682-.68V72.91zm0 9.618c0-.376.305-.68.682-.68h23.667c.376 0 .68.304.68.679v1.586c0 .376-.304.68-.68.68h-23.667c-.377 0-.682-.304-.682-.68v-1.586zm0 9.618c0-.376.305-.68.682-.68h30.806c.378 0 .683.304.683.679v1.586c0 .376-.305.68-.683.68h-30.806c-.377 0-.682-.304-.682-.68v-1.586zm0 9.617c0-.376.305-.68.682-.68h49.666c.378 0 .683.304.683.68v1.586c0 .375-.305.68-.683.68h-49.666c-.377 0-.682-.305-.682-.68v-1.586zm70.069 11.717c.32 0 .58.259.58.58 0 .318-.26.578-.58.578h-69.489c-.32 0-.58-.259-.58-.579 0-.32.26-.58.58-.58h69.489zm-31.151 17.299v.05c0 4.61-3.026 7.134-6.308 7.134-2.093 0-3.386-.953-4.316-2.06v4.12c0 1.082-.882 1.957-1.964 1.957-1.086 0-1.967-.875-1.967-1.957v-14.318c0-1.082.88-1.959 1.967-1.959 1.082 0 1.964.877 1.964 1.959v.18c.956-1.287 2.274-2.24 4.316-2.24 3.23 0 6.308 2.523 6.308 7.133zm-32.844-9.118c0-1.107.878-1.982 1.991-1.982h6.281c2.3 0 4.085.642 5.272 1.827 1.009 1.005 1.553 2.422 1.553 4.121v.05c0 2.834-1.423 4.586-3.619 5.487l2.765 3.348c.387.488.646.9.646 1.52 0 1.107-.932 1.827-1.886 1.827-.905 0-1.5-.437-1.967-1.029l-3.877-4.893h-3.18v3.94c0 1.107-.877 1.982-1.988 1.982-1.113 0-1.99-.875-1.99-1.982v-14.216zm37.84.448v-1.587c0-.375.306-.68.683-.68h25.37c.376 0 .682.305.682.68v1.586c0 .376-.306.68-.683.68h-25.369c-.377 0-.683-.304-.683-.68v.001zm26.735 7.067c0 .376-.306.68-.683.68h-17.466c-.377 0-.682-.304-.682-.68v-1.586c0-.375.305-.68.683-.68h17.465c.377 0 .683.305.683.68v1.586z"/>
        <path fill="#CCD9EF" fill-rule="nonzero" d="M49.007 188.058L201.969 188.058 201.969 190.279 49.007 190.279z"/>
        <path fill="#DE1B50" fill-rule="nonzero" d="M119.483 216.953h3.755v3.746c0 .782.636 1.417 1.42 1.417h3.142c.784 0 1.42-.635 1.42-1.417v-3.745h3.757c.785 0 1.42-.634 1.42-1.417v-3.132c0-.782-.635-1.417-1.42-1.417h-3.756v-3.745c0-.782-.637-1.416-1.421-1.416h-3.142c-.784 0-1.42.634-1.42 1.416v3.745h-3.755c-.784 0-1.42.635-1.42 1.417v3.132c0 .783.636 1.416 1.42 1.416z"/>
        <path fill="#CCD9EF" fill-rule="nonzero" d="M125.979 226.558c6.618 0 12.006-5.126 12.521-11.6h63.468v-2.466H138.45c-.744-6.237-6.022-11.108-12.47-11.108-6.452 0-11.728 4.871-12.473 11.108h-64.5v2.467h64.45c.516 6.473 5.905 11.599 12.523 11.599h-.001zm0-23.78c6.188 0 11.223 5.02 11.223 11.192 0 6.172-5.035 11.193-11.222 11.193-6.19 0-11.224-5.021-11.224-11.193s5.035-11.191 11.224-11.191h-.001z"/>
        <path fill="#7592BF" fill-rule="nonzero" d="M201.969 188.058v-21.98c-.215-.493-.34-1.033-.34-1.605 0-.57.125-1.111.34-1.604v-31.82h-43.114v46.39H41.582v10.619h160.387z"/>
        <path fill="#CCD9EF" fill-rule="nonzero" d="M412.485 197.855c-.431.053-.856.12-1.28.196-.347.062-.695.125-1.035.2-.42.095-.833.205-1.243.32-.33.094-.663.184-.988.29-.41.135-.81.29-1.212.445-.311.12-.623.236-.927.368-.4.175-.789.373-1.178.57-.287.144-.58.28-.86.436-.393.219-.77.46-1.149.7-.258.162-.524.315-.777.487-.402.276-.787.578-1.172.878-.208.161-.424.308-.625.476-.565.47-1.11.963-1.629 1.48l-.033.03c-3.815 3.817-6.362 8.919-6.94 14.6-.082.811-.124 1.635-.124 2.468v39.556h34.932c7.363 0 13.333-5.97 13.333-13.335v-24.908c0-13.76-11.133-25.772-24.809-25.422-.407.012-.813.03-1.215.061-.359.028-.716.061-1.069.105v-.001zm-64.186-19.714c-7.441 1.275-18.142 2.322-25.294-2.67l-3.114 24.332-.394.005c-.286 3.136-.709 8.384-.969 14.358h26.982v38.35c0 5.686-3.39 10.827-8.624 13.079l-3.147 1.353c1.163 1.473 2.268 2.885 3.216 4.194l-1.293 1.265 3.07 3.357s.007.01.012.014c.168.144.426.33.666.507.918.681 2.26 1.554 3.534 2.35l.433.269c.276.17.556.345.815.502 1.198.73 1.512 2.32.69 3.454l-12.585 17.341c-.193.267-.444.43-.71.504-.532.148-1.125-.06-1.446-.506-.162-.225-.253-.507-.235-.836.253-4.57 1.11-11.548 1.11-11.548.202-.733.182-1.491-.007-2.207-.114-.429-.277-.847-.53-1.225l-.015-.021c-.413-.61-.921-1.308-1.482-2.05-.465-.617-.966-1.263-1.487-1.92l-1.635 1.599s-3.583-4.18-7.255-8.532l-10.371 4.462c-5.235 2.252-8.625 7.393-8.625 13.078 0 4.922-2.504 9.26-6.31 11.818h76.481c-5.925 0-11.297-2.394-15.178-6.276-3.89-3.871-6.292-9.226-6.292-15.137V178.058l-.01.001v.082zM289.587 29.354v105.644c1.677-.565 3.404-1.019 5.18-1.34 1.012-.182 1.891-.227 2.689-.268v-4.543c0-.411-.074-.812-.21-1.19-3.38-.668-2.698-5.429-2.698-5.429-1.652-2.576.063-4.181.063-4.181s.776-7.628 9.93-5.74c5.019-2.728 4.842 3.514 4.842 3.514l-.32 3.841-.018-.001c.699 4.55.732 10.444.045 11.508-.687 1.067-3.275.711-4.526.467l-.012 1.09c1.158-.063 2.223-.07 3.151-.007l.291-.292.343.342c.374.044.72.102 1.02.182 2.151.571 4.093 1.425 5.881 2.503 4.281 2.583 7.336 6.719 9.333 11.307.111.063.184.11.184.11.074.283.172.557.257.837 2.18 5.166 5.39 10.923 7.219 13.51l.018.025c.729.884 1.508 1.653 2.305 2.37.226.202.457.391.687.583.625.515 1.261.987 1.91 1.415.215.142.426.298.642.431.812.497 1.633.934 2.46 1.313.298.136.597.244.897.366.531.218 1.06.42 1.59.596.416.137.83.27 1.242.385.346.096.684.173 1.023.254 1.11.26 2.197.463 3.228.586v.006h.01v-36.753h.004V29.354c0-8.106-3.288-15.448-8.592-20.757C334.351 3.29 327.017 0 318.917 0c-16.2 0-29.33 13.142-29.33 29.354z"/>
        <path fill="#1F2B7B" fill-rule="nonzero" d="M201.968 220.761L198.072 220.761 187.86 223.47 201.968 223.47 201.968 221.772z"/>
        <path fill="#7592BF" fill-rule="nonzero" d="M156.368 305.039v-15.515l118.257-33.547 3.081-32.586h-90.238l10.223-2.817h3.901v-4.382l-65.906 18.164v20.258l-87.25 24.75-35.813 10.16v4.32c0 3.099 1.261 5.902 3.298 7.93 2.025 2.016 4.817 3.265 7.9 3.265h132.547zm8.467-38.238v1.615l-23.232 6.727H116.21v-1.751l23.234-6.59h25.392zm-18.073-.646v-1.75l23.233-6.59h25.391v1.615l-23.233 6.725h-25.392zm-13.07 9.634v1.615l-23.233 6.726H85.066v-1.75l23.233-6.591h25.393zm35.583 1.615l-23.232 6.726H120.65v-1.75l23.233-6.591h25.393v1.615zm31.143-8.988l-23.232 6.727h-25.393v-1.751l23.234-6.59h25.392v1.614zm30.553-8.986l-23.235 6.725h-25.392v-1.75l23.234-6.59h25.393v1.615zm-118.848 4.975l23.234-6.59h25.391v1.615l-23.233 6.725h-25.392v-1.75zm-30.55 8.987l23.233-6.59h25.392v1.614l-23.233 6.727H81.572v-1.751zm-31.145 8.987l23.233-6.59h25.393v1.615l-23.233 6.726H50.428v-1.75z"/>
        <path fill="#053A72" fill-rule="nonzero" d="M299.553 290.812c0-5.68 3.39-10.815 8.623-13.064l10.37-4.457c-2.702-3.199-5.453-6.49-6.862-8.279-7.342-9.324-15.604-23.664-17.951-37.905-1.526-9.259-1.51-19.79-1.226-27.04l-12.023.155-.284-1.8-2.24 23.622-.167 1.757-3.075 32.423L156.674 289.6v15.437h124.318l-10.022-.057-13.364-.077c-.409-.002-.7-.263-.806-.583-.105-.32-.025-.699.309-.934.213-.151.442-.31.686-.473.488-.328 1.029-.678 1.6-1.04 3.724-2.35 8.763-5.163 8.763-5.163 1.116-.42 2.044-1.189 2.658-2.178.206-.33.375-.685.506-1.06l.013-.036c.133-.387.271-.803.41-1.24.022-.063.041-.128.06-.191.142-.445.285-.905.429-1.383.426-1.424.854-2.958 1.25-4.43l11.38.463-1.726 8.124c-.143.673-.2 1.361-.17 2.049l.257 5.897c.038.844-.425 1.562-1.1 1.966-.337.202-.71.35-1.133.346h4.283c2.95 0 5.693-.893 7.97-2.422 3.804-2.555 6.308-6.888 6.308-11.804zm19.015-63.983c.15 8.326 1.847 16.506 4.957 24.024 2.196 5.308 6.75 10.859 10.61 15.685l3.176-1.348c5.285-2.242 8.708-7.363 8.708-13.024V213.97l-27.467 8.493c-.011 1.458-.01 2.918.016 4.365z"/>
        <path fill="#1F2B7B" fill-rule="nonzero" d="M209.338 65.835h26.842c.378 0 .687-.294.687-.656v-1.53c0-.363-.309-.657-.688-.657h-26.84c-.381 0-.689.294-.689.656v1.531c0 .362.308.656.688.656zm.728 9.625h17.218c.372 0 .673-.294.673-.656v-1.53c0-.363-.302-.657-.674-.657h-17.217c-.372 0-.673.294-.673.656v1.531c0 .362.301.656.673.656zm69.194 51.946h-17.217c-.372 0-.672.294-.672.655v1.531c0 .363.3.656.672.656h17.217c.373 0 .674-.294.674-.656v-1.53c0-.363-.301-.656-.674-.656zm-69.92-42.321h23.87c.379 0 .688-.294.688-.656V82.9c0-.363-.31-.657-.688-.657h-23.87c-.381 0-.689.294-.689.656v1.531c0 .362.308.656.688.656zm.731 9.625h30.574c.374 0 .677-.294.677-.656v-1.53c0-.363-.303-.657-.677-.657H210.07c-.375 0-.678.294-.678.656v1.531c0 .363.303.656.678.656zm69.18 28.134c.377 0 .683-.294.683-.655v-1.531c0-.363-.306-.656-.683-.656h-25.365c-.378 0-.683.294-.683.656v1.53c0 .363.305.656.683.656h25.365zm-69.915-18.509H259.2c.38 0 .685-.294.685-.656v-1.53c0-.363-.306-.657-.685-.657h-49.864c-.379 0-.685.294-.685.656v1.531c0 .362.306.656.685.656zm60.945-40.687v1.531c0 .362.299.656.669.656h8.315c.37 0 .669-.294.669-.656v-1.53c0-.363-.3-.657-.67-.657h-8.314c-.37 0-.67.294-.67.656zm8.935 11.812c.397 0 .718-.294.718-.656v-1.53c0-.363-.321-.657-.718-.657h-5.99c-.397 0-.718.294-.718.656v1.531c0 .362.321.656.719.656h5.989zm-8.935 7.438v1.531c0 .362.299.656.669.656h8.315c.37 0 .669-.294.669-.656V82.9c0-.363-.3-.657-.67-.657h-8.314c-.37 0-.67.294-.67.656zm0 11.156c0 .363.299.656.669.656h8.315c.37 0 .669-.294.669-.656v-1.53c0-.363-.3-.657-.67-.657h-8.314c-.37 0-.67.294-.67.656v1.531zm8.935 7.438h-5.99c-.397 0-.718.294-.718.656v1.531c0 .362.321.656.719.656h5.989c.397 0 .718-.294.718-.656v-1.53c0-.363-.321-.657-.718-.657zM264.34 39.126v-1.992c0-.473-.363-.855-.811-.855h-35.505c-.448 0-.81.382-.81.854v1.993c0 .472.362.855.81.855h35.505c.448 0 .811-.383.811-.855zm-29.639-13.953h21.41c.444 0 .805-.382.805-.854v-1.993c0-.472-.36-.854-.805-.854h-21.41c-.444 0-.804.382-.804.854v1.993c0 .472.36.854.804.854zm-14.092 7.404h50.339c.452 0 .818-.383.818-.854v-1.994c0-.473-.366-.855-.818-.855h-50.34c-.451 0-.82.383-.82.854v1.994c0 .472.369.854.82.854z"/>
        <path fill="#DE1B50" fill-rule="nonzero" d="M224.405 49.445c-.104-.104-.274-.105-.38 0l-.524.522-.523-.522c-.105-.105-.276-.105-.38 0-.104.105-.104.275 0 .379l.523.522-.523.522c-.104.105-.104.275 0 .379.052.053.122.078.19.078s.138-.026.19-.078l.523-.522.524.522c.053.053.122.078.19.078s.138-.026.19-.078c.105-.105.105-.274 0-.379l-.523-.522.523-.522c.105-.104.105-.274 0-.378zm42.003 1.802c.052.053.122.078.19.078s.138-.026.19-.078l.523-.522.524.522c.052.053.12.078.19.078.068 0 .138-.026.19-.078.104-.105.104-.274 0-.379l-.524-.522.524-.522c.104-.104.104-.274 0-.378-.106-.105-.276-.105-.38 0l-.524.521-.523-.522c-.106-.105-.276-.105-.38 0-.106.105-.106.275 0 .379l.523.522-.523.522c-.106.105-.106.275 0 .379zm-6.304 0l.523-.522.525.522c.052.053.12.078.19.078.069 0 .137-.026.19-.078.105-.105.105-.274 0-.379l-.525-.522.525-.522c.105-.104.105-.274 0-.378-.105-.105-.275-.105-.38 0l-.525.521-.523-.522c-.105-.105-.274-.105-.38 0-.105.105-.105.275 0 .379l.523.522-.523.522c-.105.105-.105.275 0 .379.053.053.121.078.19.078.07 0 .138-.026.19-.078zm-2.286-1.802c-.104-.104-.273-.105-.38 0l-.523.522-.524-.522c-.104-.105-.274-.105-.38 0-.104.105-.104.275 0 .379l.524.522-.524.522c-.104.105-.104.275 0 .379.052.053.122.078.19.078.07 0 .138-.026.19-.078l.524-.522.524.522c.053.053.121.078.19.078.07 0 .137-.026.189-.078.106-.105.106-.274 0-.379l-.523-.522.523-.522c.106-.104.106-.274 0-.378zm-2.97 0c-.104-.105-.274-.105-.38 0l-.523.522-.524-.522c-.104-.105-.274-.105-.38 0-.104.105-.104.275 0 .379l.524.522-.524.522c-.104.105-.104.275 0 .379.053.053.122.078.19.078.07 0 .138-.026.19-.078l.524-.522.523.522c.052.053.122.078.19.078.07 0 .138-.026.19-.078.105-.105.105-.274 0-.379l-.524-.522.524-.522c.105-.104.105-.274 0-.378zm-3.711 0c-.106-.105-.276-.105-.381 0l-.524.522-.523-.522c-.105-.105-.274-.105-.38 0-.104.105-.104.275 0 .379l.523.522-.523.522c-.104.105-.104.275 0 .379.052.053.122.078.19.078s.138-.026.19-.078l.523-.522.524.522c.052.053.122.078.19.078s.138-.026.19-.078c.104-.105.104-.274 0-.379l-.523-.522.523-.522c.104-.104.104-.274 0-.378zm-2.97 0c-.106-.104-.275-.105-.381 0l-.523.522-.524-.522c-.105-.105-.276-.105-.38 0-.105.105-.105.275 0 .379l.523.522-.523.522c-.105.105-.105.275 0 .379.052.053.122.078.19.078s.137-.026.19-.078l.524-.522.523.522c.052.053.122.078.19.078s.138-.026.19-.078c.104-.105.104-.274 0-.379l-.523-.522.523-.522c.104-.104.104-.274 0-.378zm17.077 0c-.105-.105-.275-.105-.38 0l-.524.522-.523-.522c-.105-.105-.275-.105-.379 0-.107.105-.107.275 0 .379l.522.522-.523.522c-.105.105-.105.275 0 .379.053.053.121.078.19.078s.137-.026.19-.078l.523-.522.525.522c.052.053.12.078.189.078s.137-.026.19-.078c.105-.105.105-.274 0-.379l-.525-.522.525-.522c.105-.104.105-.274 0-.378zm-23.76 0c-.105-.104-.276-.105-.38 0l-.524.522-.524-.522c-.105-.105-.275-.105-.379 0-.106.105-.106.275 0 .379l.523.522-.523.522c-.106.105-.106.275 0 .379.052.053.12.078.19.078.068 0 .136-.026.19-.078l.523-.522.524.522c.052.053.12.078.19.078.068 0 .136-.026.19-.078.104-.105.104-.274 0-.379l-.524-.522.524-.522c.104-.104.104-.274 0-.378zm-3.713 0c-.106-.105-.276-.105-.38 0l-.523.522-.524-.522c-.105-.105-.276-.105-.38 0-.106.105-.106.275 0 .379l.523.522-.523.522c-.106.105-.106.275 0 .379.052.053.12.078.19.078.068 0 .136-.026.19-.078l.524-.522.523.522c.052.053.12.078.19.078.068 0 .136-.026.19-.078.105-.105.105-.274 0-.379l-.523-.522.523-.522c.104-.104.104-.274 0-.378zm-6.684 0c-.104-.104-.274-.105-.38 0l-.523.522-.524-.522c-.105-.105-.274-.105-.38 0-.104.105-.104.275 0 .379l.525.522-.525.522c-.104.105-.104.275 0 .379.052.053.122.078.19.078.07 0 .138-.026.19-.078l.524-.522.523.522c.054.053.122.078.191.078s.137-.026.19-.078c.105-.105.105-.274 0-.379l-.524-.522.523-.522c.106-.104.106-.274 0-.378zm-3.713 0c-.104-.105-.274-.105-.379 0l-.524.522-.523-.522c-.106-.105-.276-.105-.38 0-.105.105-.105.275 0 .379l.523.522-.524.522c-.104.105-.104.275 0 .379.053.053.122.078.19.078.069 0 .138-.026.19-.078l.524-.522.523.522c.053.053.123.078.19.078.07 0 .138-.026.19-.078.106-.105.106-.274 0-.379l-.523-.522.523-.522c.106-.104.106-.274 0-.378zm6.684 0c-.106-.105-.274-.105-.38 0l-.523.522-.525-.522c-.104-.105-.273-.105-.38 0-.105.105-.105.275 0 .379l.525.522-.524.522c-.106.105-.106.275 0 .379.053.053.121.078.19.078s.137-.026.19-.078l.524-.522.522.522c.054.053.122.078.192.078.068 0 .136-.026.189-.078.105-.105.105-.274 0-.379l-.524-.522.524-.522c.105-.104.105-.274 0-.378zm10.395 0c-.104-.105-.275-.105-.379 0l-.524.522-.523-.522c-.106-.105-.276-.105-.38 0-.105.105-.105.275 0 .379l.524.522-.524.522c-.105.105-.105.275 0 .379.052.053.12.078.19.078.068 0 .138-.026.19-.078l.523-.522.524.522c.052.053.122.078.19.078s.137-.026.19-.078c.105-.105.105-.274 0-.379l-.524-.522.524-.522c.105-.104.105-.274 0-.378zm-34.48 64.015c-.32 0-.58.25-.58.56 0 .308.26.558.58.558h69.382c.319 0 .579-.25.579-.559 0-.308-.26-.559-.58-.559h-69.382.001z"/>
        <path fill="#DFF7F9" fill-rule="nonzero" d="M201.968 222.007L201.968 223.705 278.281 223.705 278.449 222.007z"/>
        <path fill="#ECF0F9" fill-rule="nonzero" d="M161.129 257.654L135.925 257.654 112.864 264.317 138.068 264.317z"/>
        <path fill="#CCD9EF" fill-rule="nonzero" d="M112.864 265.058L138.111 265.058 138.111 266.538 112.864 266.538z"/>
        <path fill="#586BB2" fill-rule="nonzero" d="M138.111 266.538L161.129 259.972 161.129 258.394 138.111 264.829z"/>
        <path fill="#ECF0F9" fill-rule="nonzero" d="M130.685 266.538L105.482 266.538 82.421 273.202 107.624 273.202z"/>
        <path fill="#CCD9EF" fill-rule="nonzero" d="M81.678 273.942L106.924 273.942 106.924 275.423 81.678 275.423z"/>
        <path fill="#586BB2" fill-rule="nonzero" d="M107.667 275.423L130.685 268.856 130.685 267.279 107.667 273.713z"/>
        <path fill="#ECF0F9" fill-rule="nonzero" d="M99.499 276.163L74.295 276.163 51.235 282.827 76.439 282.827z"/>
        <path fill="#CCD9EF" fill-rule="nonzero" d="M51.235 282.827L76.481 282.827 76.481 284.307 51.235 284.307z"/>
        <path fill="#586BB2" fill-rule="nonzero" d="M76.48 284.308L99.499 277.74 99.499 276.163 76.48 282.598z"/>
        <path fill="#ECF0F9" fill-rule="nonzero" d="M195.285 257.654L170.082 257.654 147.021 264.317 172.224 264.317z"/>
        <path fill="#CCD9EF" fill-rule="nonzero" d="M147.021 265.058L172.267 265.058 172.267 266.538 147.021 266.538z"/>
        <path fill="#586BB2" fill-rule="nonzero" d="M172.267 266.538L195.285 259.972 195.285 258.394 172.267 264.829z"/>
        <path fill="#ECF0F9" fill-rule="nonzero" d="M116.577 273.202L141.782 273.202 164.842 266.538 139.639 266.538z"/>
        <path fill="#CCD9EF" fill-rule="nonzero" d="M116.577 273.942L141.824 273.942 141.824 275.423 116.577 275.423z"/>
        <path fill="#586BB2" fill-rule="nonzero" d="M141.823 275.423L164.842 268.856 164.842 267.279 141.823 273.713z"/>
        <path fill="#ECF0F9" fill-rule="nonzero" d="M85.391 282.827L110.595 282.827 133.656 276.163 108.451 276.163z"/>
        <path fill="#CCD9EF" fill-rule="nonzero" d="M85.391 282.827L110.638 282.827 110.638 284.307 85.391 284.307z"/>
        <path fill="#586BB2" fill-rule="nonzero" d="M110.637 284.308L133.656 277.74 133.656 276.163 110.637 282.598z"/>
        <path fill="#ECF0F9" fill-rule="nonzero" d="M182.662 264.317L207.865 264.317 230.927 257.654 205.722 257.654z"/>
        <path fill="#CCD9EF" fill-rule="nonzero" d="M182.662 265.058L207.908 265.058 207.908 266.538 182.662 266.538z"/>
        <path fill="#586BB2" fill-rule="nonzero" d="M207.908 266.538L230.927 259.972 230.927 258.394 207.908 264.829z"/>
        <path fill="#ECF0F9" fill-rule="nonzero" d="M152.219 273.202L177.422 273.202 200.483 266.538 175.28 266.538z"/>
        <path fill="#CCD9EF" fill-rule="nonzero" d="M152.219 273.942L177.465 273.942 177.465 275.423 152.219 275.423z"/>
        <path fill="#586BB2" fill-rule="nonzero" d="M177.464 275.423l23.02-6.567v-1.577l-23.02 6.434v1.71zm-56.432 7.404h25.205l23.06-6.664h-25.204l-23.06 6.664z"/>
        <path fill="#053A72" fill-rule="nonzero" d="M121.032 282.827L146.279 282.827 146.279 284.307 121.032 284.307z"/>
        <path fill="#1F2B7B" fill-rule="nonzero" d="M146.278 284.308L169.297 277.74 169.297 276.163 146.278 282.598z"/>
        <path fill="#F69679" fill-rule="nonzero" d="M271.024 305.011l10.394.055-10.394-.055zm-13.528-1.676c.206-.146.428-.299.663-.457-.235.158-.456.31-.663.457-.322.228-.399.593-.297.903-.102-.31-.025-.675.297-.904v.001zm13.777-9.932c-.002.012-.007.025-.01.036-.127.362-.291.704-.49 1.023.199-.318.363-.66.49-1.023.003-.01.008-.025.01-.036zm1.396-2.523c2.104.667 3.068 2.222 4.857 3.248 1.876 1.075 3.81 1.281 5.836 1.297-.07.487-.148.976-.125 1.47-.03-.671.027-1.342.17-1.998l1.725-7.917-11.375-.451c-.394 1.435-.823 2.93-1.249 4.319v-.002c.053.015.108.017.161.034zm-.932 1.664c.02-.06.04-.123.058-.184-.019.061-.038.124-.058.184zm11.696 10.458c.037.874-.411 1.618-1.061 2.037.651-.419 1.098-1.163 1.061-2.037l-.248-6.108.248 6.109v-.001z"/>
        <path fill="#1F2B7B" fill-rule="nonzero" d="M283.644 302.664l-.26-6.058c-.022-.52.056-1.035.127-1.549-2.048-.015-4.001-.233-5.897-1.366-1.808-1.082-2.781-2.72-4.907-3.424-.053-.018-.11-.02-.162-.036v.002c-.146.49-.29.963-.433 1.42l-.06.195c-.141.449-.28.877-.416 1.274-.003.012-.007.026-.012.038-.132.385-.303.749-.511 1.088-.62 1.016-1.557 1.806-2.684 2.238 0 0-5.09 2.889-8.85 5.302-.577.371-1.122.732-1.616 1.068-.246.168-.477.33-.693.486-.337.242-.417.63-.31.96.105.328.4.596.812.6l13.496.077 10.121.06c.428.002.804-.15 1.145-.356.68-.415 1.148-1.152 1.11-2.02z"/>
        <path fill="#FABCA3" fill-rule="nonzero" d="M327.455 280.22c.52.64 1.019 1.267 1.483 1.867 1.5-.835 3.224-1.39 5.223-1.97 1.1-.32 2.199-.795 3.076-1.527.82-.68 1.39-1.59 2.1-2.36-.24-.172-.497-.352-.665-.493l-.012-.013-3.06-3.262-8.144 7.759zm4.411 20.598c-.512.143-1.086-.058-1.396-.49.31.433.883.633 1.397.49zm11.716-22.562l.419.258-.42-.26v.002zm-12.677 6.19l.014.02c.246.366.402.77.513 1.184-.11-.415-.267-.818-.513-1.183l-.014-.021z"/>
        <path fill="#1F2B7B" fill-rule="nonzero" d="M337.251 278.59c-.878.75-1.98 1.238-3.08 1.567-2.002.598-3.73 1.167-5.23 2.024.56.742 1.067 1.44 1.478 2.048l.016.02c.253.379.415.796.53 1.225.189.714.208 1.471.006 2.203 0 0-.856 6.968-1.108 11.532-.018.328.073.61.234.834.32.446.913.654 1.444.506.266-.074.516-.236.71-.503l12.566-17.317c.822-1.133.509-2.72-.688-3.449-.258-.157-.539-.331-.813-.501l-.434-.268c-1.272-.796-2.611-1.667-3.529-2.348-.71.791-1.28 1.726-2.102 2.426z"/>
        <path fill="#7592BF" fill-rule="nonzero" d="M292.706 200.25c-.285 7.258-.301 17.801 1.235 27.07 2.363 14.256 10.684 28.613 18.078 37.947 1.418 1.79 4.19 5.086 6.91 8.288 3.697 4.351 7.304 8.532 7.304 8.532l1.647-1.6 8.222-7.984 1.303-1.265c-.955-1.309-2.068-2.72-3.238-4.194-3.849-4.846-8.39-10.42-10.58-15.749-3.103-7.549-4.795-15.763-4.944-24.123-.026-1.452-.028-2.919-.017-4.382l27.393-8.528h-27.168c.262-5.974.688-11.221.976-14.358l-27.12.346z"/>
        <path fill="#FABCA3" fill-rule="nonzero" d="M348.989 177.692l.01-.001c2.496-.338 4.693-.82 6.327-1.286.001.007.004.014.007.02l.154-.06.02-.005v-.002l1.009-.39 2.906-1.287s9.243-1.862 9.819-2.299c.575-.437-3.008-.294-3.008-.294s3.367-.82 4.222-1.545c.678-.577-3.954-.332-3.954-.332l.185-.073h-14.943c-.509 0-.959-.19-1.364-.448-.452-.035-.905-.08-1.38-.14l-.01-.002v8.144zm-3.959-8.021c-.33-.078-.657-.153-.992-.246.335.093.663.168.992.246zm-19.589-21.878c-.081-.27-.177-.534-.248-.808 0 0-.071-.045-.178-.105.075.173.177.334.25.51.054.132.119.27.176.403zm9.081 16.248c-.773-.692-1.528-1.435-2.235-2.29-.006-.006-.011-.015-.017-.022l.015.023c.71.855 1.464 1.596 2.237 2.289zm7.013 3.739c.516.21 1.029.405 1.542.575-.513-.17-1.026-.365-1.542-.575zm-3.391-1.087c.786.479 1.582.903 2.384 1.268-.802-.366-1.598-.788-2.384-1.268zm-2.703-2.27c.606.498 1.22.953 1.85 1.366-.628-.413-1.246-.869-1.85-1.367z"/>
        <path fill="#DE1B50" fill-rule="nonzero" d="M273.89 145.228c.544-.587 1.11-1.157 1.693-1.706-.582.55-1.149 1.118-1.694 1.706zm-1.363 2.21c.467-.576.949-1.138 1.448-1.683-.5.546-.98 1.106-1.448 1.683zm-5.615 8.934c.255-.601.513-1.199.797-1.782-.285.584-.544 1.181-.797 1.782zm4.24-6.725c.395-.564.804-1.12 1.229-1.66-.425.542-.834 1.095-1.23 1.66zm-4.856 7.314c-.328.85-.63 1.714-.902 2.593-.53 1.721-1.035 3.592-1.523 5.552.488-1.96.995-3.83 1.524-5.552.27-.879.573-1.743.901-2.592v-.001zm2.053-2.87c.288-.561.58-1.12.894-1.662-.314.543-.607 1.1-.894 1.662zm-4.415 12.495c-.007.022-.01.041-.018.062-1.006 3.86.44 7.757 3.395 10.304-2.963-2.558-4.391-6.479-3.377-10.365v-.001zm5.825-14.726c.336-.556.68-1.107 1.044-1.644-.363.538-.708 1.087-1.044 1.644zm.53 26.9c-.521-.187-1.03-.394-1.502-.655.472.262.982.468 1.502.655zm-2.533-.762c-.302-.2-.617-.383-.891-.612.274.23.59.412.891.612zm25.24 21.75l27.059-.348.395-.006 3.127-24.472c7.186 5.02 17.935 3.966 25.412 2.684v-7.983c-1.04-.124-2.137-.327-3.255-.59-.343-.08-.683-.16-1.032-.256-.414-.115-.832-.248-1.252-.387-.534-.176-1.069-.38-1.604-.6-.302-.123-.604-.231-.904-.368-.835-.38-1.663-.822-2.48-1.321-.22-.133-.432-.29-.65-.434-.655-.43-1.294-.905-1.925-1.424-.232-.192-.464-.382-.692-.587-.804-.72-1.59-1.493-2.327-2.384l-.017-.024c-1.843-2.604-5.082-8.395-7.28-13.594-.06-.14-.126-.282-.184-.42-.076-.183-.18-.35-.26-.532-2.014-4.617-5.096-8.778-9.412-11.377-1.803-1.085-3.762-1.944-5.932-2.518-.302-.08-.65-.139-1.027-.184-.2-.023-.422-.035-.64-.05-.935-.063-2.01-.057-3.177.008l-.013 1.051c-.023 1.955-1.615 3.528-3.573 3.528-1.972 0-3.572-1.597-3.572-3.567v-.344c-.803.04-1.69.086-2.71.27-1.791.322-3.533.779-5.225 1.347-5.124 1.724-9.742 4.545-13.625 8.177.66-.616 1.337-1.21 2.037-1.777-.801 10.71 7.858 19.645 18.813 21.896 1.872-.93 3.096-1.545 3.096-1.545s3.5-3.518 3.33-5.548c.287-.077.806.042.97.406.639 1.434-.077 2.99-.077 2.99s6.643-3.153 6.7-2.459c.059.695-3.222 2.714-3.222 2.714s5.29-2.518 5.13-1.823c-.063.268 0 0-4.21 2.9 0 0 4.407-1.327 3.882-.637-.658.867-3.715 2.421-3.715 2.421s3.42-.985 2.965-.448c-.344.407-5.273 2.739-7.658 3.852-6.086 12.212-13.776 23.329-23.62 32.184l-.585-3.724.573 3.647.285 1.812 12.08-.155z"/>
        <path fill="#A71D3D" fill-rule="nonzero" d="M280.733 198.423c9.879-8.757 17.595-19.75 23.704-31.826-.77.355-1.28.587-1.28.587l-2.52 1.851c-3.535 2.368-6.78 4.268-9.747 5.796-3.428-.662-4.72-2.795-4.894-5.621 3.975-1.87 8.362-4.004 11.224-5.404-10.994-2.226-19.684-11.06-18.88-21.652-.703.561-1.383 1.148-2.044 1.757l-.124.118c-.61.566-1.2 1.152-1.77 1.757-.081.085-.16.171-.238.256-.521.563-1.025 1.141-1.512 1.735l-.32.394c-.443.556-.87 1.128-1.284 1.709-.122.173-.248.345-.368.52-.38.554-.738 1.12-1.09 1.694-.126.21-.26.418-.386.631-.327.56-.633 1.134-.932 1.713-.12.232-.249.46-.364.695-.297.6-.567 1.217-.831 1.835-.094.22-.199.432-.288.653-.343.84-.659 1.695-.94 2.566-.553 1.702-1.083 3.553-1.594 5.492-.118.45-.242.873-.356 1.335l-.001.007c-.937 3.773.382 7.58 3.12 10.064.122.112.224.242.354.35.286.236.616.424.931.63.232.153.442.33.689.466.492.27 1.024.483 1.569.675.097.035.18.089.279.12l7.212 2.327 2.092 13.087.589 3.683z"/>
        <path fill="#FBA09B" fill-rule="nonzero" d="M285.874 168.97c.17 2.897 1.44 5.083 4.808 5.76 2.914-1.564 6.102-3.512 9.575-5.938l2.474-1.897s.502-.238 1.26-.602c2.35-1.127 7.209-3.49 7.548-3.903.45-.544-2.923.454-2.923.454s3.014-1.575 3.663-2.454c.517-.7-3.828.646-3.828.646 4.15-2.94 4.09-2.667 4.15-2.94.16-.703-5.056 1.848-5.056 1.848s3.234-2.046 3.176-2.75c-.056-.703-6.605 2.492-6.605 2.492s.705-1.577.075-3.03c-.162-.37-.673-.49-.955-.412.168 2.058-3.283 5.623-3.283 5.623s-1.207.623-3.053 1.565c-2.811 1.436-7.121 3.622-11.026 5.539z"/>
        <path fill="#FABCA3" fill-rule="nonzero" d="M301.007 137.711c1.951 0 3.536-1.543 3.559-3.46l.012-1.033.012-1.076c1.256.241 3.856.592 4.545-.46.69-1.051.657-6.871-.045-11.362-.098-.007-4.744-.32-7.24-2.473-.963-.83-3.45 2.666-3.05 3.862.317.947 1.177 3.352-.702 4.321 0 0-.409-.52-.543-.694-.455-.58-2.045-.173-.848 1.815.469.775 1.2.19 1.2.19l.38.992c-.407.02-.72-.056-1.047-.119.137.374.21.77.21 1.174v4.823c0 1.933 1.594 3.5 3.557 3.5z"/>
        <path fill="#1F2B7B" fill-rule="nonzero" d="M298.132 127.072s-.73.595-1.198-.196c-1.196-2.029.393-2.445.846-1.852l.543.709c1.875-.99 1.017-3.444.7-4.411-.4-1.222 2.084-4.79 3.045-3.943 2.492 2.197 7.13 2.518 7.227 2.525l.018.001.321-3.87s.177-6.291-4.854-3.541c-9.177-1.903-9.955 5.783-9.955 5.783s-1.72 1.618-.063 4.214c0 0-.685 4.798 2.704 5.47.326.066.639.142 1.046.122l-.38-1.011z"/>
        <path fill="#DE1B50" fill-rule="nonzero" d="M380.917 167.327l.001-.004V152.52h-.001v14.808zm-1.277 2.914c-.128.056-.277.06-.414.095.137-.035.286-.04.414-.095zm.618-.75c-.047.047-.114.071-.166.115.052-.044.12-.068.166-.116z"/>
    </g>
</svg>
